<svg width="24" height="24" viewBox="0 0 24 24" fill="none" xmlns="http://www.w3.org/2000/svg">
<g id="usdc 2">
<path id="Vector" d="M15.6693 13.8525C15.6918 12.3112 14.1037 11.2275 12.0543 11.0138C10.8505 10.8919 10.1962 10.5487 10.1962 9.75375C10.1962 8.99437 10.9687 8.43 11.8293 8.47687C13.393 8.565 13.6199 9.5325 13.6199 10.1231C13.6199 10.1231 15.3224 10.1419 15.3224 10.1231C15.3224 8.685 14.4937 7.41938 12.8005 7.04625V5.34375H11.113V6.98625C9.36365 7.26375 8.39428 8.67375 8.3774 9.87375C8.35303 11.4619 9.68053 12.345 11.8837 12.6638C13.2524 12.8513 13.8618 13.3744 13.8487 14.0681C13.8374 14.8181 13.348 15.5363 11.938 15.5363C10.5993 15.5363 10.0499 14.7094 10.0499 13.8375H8.2124C8.2124 15.4013 9.04865 16.5487 11.1037 16.815V18.4537H12.7912V16.8319C15.1762 16.53 15.6543 14.7375 15.6693 13.8525Z" fill="url(#paint0_linear_202_470)"/>
<path id="Vector_2" d="M3.8269 12C3.82694 10.2879 4.36466 8.619 5.36418 7.22891C6.36369 5.83881 7.77451 4.7977 9.39752 4.25252V2.45439C7.30355 3.02557 5.45548 4.26944 4.13806 5.99436C2.82063 7.71928 2.10693 9.82954 2.10693 12C2.10693 14.1705 2.82063 16.2808 4.13806 18.0057C5.45548 19.7306 7.30355 20.9745 9.39752 21.5456V19.7475C7.77451 19.2023 6.36369 18.1612 5.36418 16.7711C4.36466 15.381 3.82694 13.7122 3.8269 12ZM14.5069 2.42627V4.21877C16.1526 4.75017 17.5874 5.78963 18.6051 7.18776C19.6228 8.58589 20.1711 10.2707 20.1711 12C20.1711 13.7293 19.6228 15.4141 18.6051 16.8123C17.5874 18.2104 16.1526 19.2499 14.5069 19.7813V21.5738C16.6227 21.0183 18.495 19.7776 19.8311 18.0455C21.1672 16.3135 21.8918 14.1875 21.8918 12C21.8918 9.81249 21.1672 7.68658 19.8311 5.95449C18.495 4.22239 16.6227 2.9817 14.5069 2.42627Z" fill="url(#paint1_linear_202_470)"/>
</g>
<defs>
<linearGradient id="paint0_linear_202_470" x1="11.941" y1="5.34375" x2="11.941" y2="18.4537" gradientUnits="userSpaceOnUse">
<stop stop-color="#14F195"/>
<stop offset="0.730769" stop-color="#999999"/>
</linearGradient>
<linearGradient id="paint1_linear_202_470" x1="11.9994" y1="2.42627" x2="11.9994" y2="21.5738" gradientUnits="userSpaceOnUse">
<stop stop-color="#14F195"/>
<stop offset="0.730769" stop-color="#999999"/>
</linearGradient>
</defs>
</svg>
